<svg xmlns="http://www.w3.org/2000/svg" xmlns:xlink="http://www.w3.org/1999/xlink" width="500" zoomAndPan="magnify" viewBox="0 0 375 374.999991" height="500" preserveAspectRatio="xMidYMid meet" version="1.0"><defs><g/><clipPath id="8ef5c41547"><path d="M 147 201 L 299 201 L 299 259 L 147 259 Z M 147 201 " clip-rule="nonzero"/></clipPath><clipPath id="5bd7cd9274"><path d="M 301.722656 206.578125 L 291.238281 272.5 L 143.101562 248.945312 L 153.582031 183.023438 Z M 301.722656 206.578125 " clip-rule="nonzero"/></clipPath><clipPath id="32629ce485"><path d="M 291.222656 272.605469 L 301.707031 206.683594 L 153.566406 183.125 L 143.085938 249.046875 Z M 291.222656 272.605469 " clip-rule="nonzero"/></clipPath></defs><g fill="#000000" fill-opacity="1"><g transform="translate(121.731875, 237.201498)"><g><path d="M 76.148438 1.773438 C 96.03125 1.773438 112.894531 -3.195312 121.234375 -7.808594 L 124.078125 -30.886719 L 122.125 -31.0625 C 115.199219 -11.894531 100.289062 -1.773438 81.121094 -1.773438 C 44.199219 -1.773438 23.964844 -33.726562 24.140625 -67.097656 C 24.140625 -103.308594 45.972656 -122.125 74.199219 -122.125 C 95.320312 -122.125 112.183594 -111.296875 119.105469 -95.144531 L 120.882812 -95.496094 L 120.171875 -116.621094 C 113.25 -121.058594 95.496094 -125.496094 80.234375 -125.496094 C 38.519531 -125.496094 9.230469 -97.449219 9.230469 -59.640625 C 9.230469 -20.945312 35.324219 1.773438 76.148438 1.773438 Z M 76.148438 1.773438 "/></g></g></g><g clip-path="url(#8ef5c41547)"><g clip-path="url(#5bd7cd9274)"><g clip-path="url(#32629ce485)"><path fill="#b3936f" d="M 262.558594 224.011719 C 262.601562 224.085938 262.671875 224.140625 262.761719 224.167969 C 263.0625 224.253906 263.363281 224.316406 263.664062 224.378906 C 266.941406 225.640625 269.996094 227.464844 273.300781 228.652344 C 278.589844 230.546875 284.777344 231.042969 290.3125 230.222656 C 292.167969 229.949219 294.015625 229.746094 295.855469 229.320312 C 296.148438 229.261719 296.671875 229.207031 297.132812 229.121094 C 297.511719 229.042969 297.84375 228.921875 298.042969 228.765625 C 298.167969 228.664062 298.171875 228.554688 298.183594 228.476562 C 298.1875 228.367188 298.148438 228.28125 298.050781 228.199219 C 298.015625 228.164062 297.953125 228.128906 297.863281 228.113281 C 297.808594 228.105469 297.714844 228.105469 297.660156 228.097656 C 297.328125 228.054688 296.996094 228.015625 296.664062 227.976562 C 295.855469 227.890625 295.035156 227.746094 294.242188 227.550781 C 291.9375 226.96875 289.558594 226.363281 287.363281 225.445312 C 282.699219 223.515625 277.503906 222.730469 272.46875 223.0625 C 270.15625 223.222656 267.988281 223.824219 265.765625 223.847656 L 265.753906 223.847656 C 263.273438 223.085938 260.75 222.441406 258.183594 221.96875 C 255.777344 221.53125 253.34375 221.25 250.886719 221.210938 C 249.996094 221.191406 249.113281 221.214844 248.226562 221.261719 C 249.566406 220.757812 250.871094 220.210938 252.128906 219.625 C 253.765625 218.859375 255.53125 218.140625 257.011719 217.082031 C 259.441406 215.347656 261.324219 213.199219 263.367188 211.082031 C 264.230469 210.179688 264.9375 209.128906 265.765625 208.191406 C 266.671875 207.164062 267.691406 206.203125 268.601562 205.160156 C 269.164062 204.519531 269.746094 203.910156 270.320312 203.285156 C 270.5 203.097656 270.664062 202.921875 270.851562 202.75 C 270.933594 202.679688 271.105469 202.601562 271.1875 202.53125 C 271.265625 202.460938 271.316406 202.390625 271.339844 202.339844 C 271.382812 202.226562 271.371094 202.128906 271.316406 202.039062 C 271.277344 201.964844 271.210938 201.875 271.050781 201.835938 C 270.804688 201.769531 270.484375 201.824219 270.140625 201.945312 C 269.753906 202.085938 269.324219 202.316406 269.0625 202.421875 C 267.496094 203.011719 265.886719 203.5 264.347656 204.160156 C 260.207031 205.945312 256.269531 208.140625 253.335938 211.675781 C 251.582031 213.785156 250.371094 216.105469 248.832031 218.046875 C 247.441406 219.800781 245.777344 221.238281 243.171875 221.890625 C 239.511719 222.605469 236.136719 223.824219 232.667969 225.269531 C 226.449219 227.875 219.941406 231.257812 210.863281 233.769531 C 207.675781 234.65625 204.480469 235.253906 201.300781 235.585938 C 201.402344 235.546875 201.5 235.511719 201.601562 235.472656 C 204.582031 234.285156 208.609375 232.183594 210.835938 229.847656 C 213.457031 227.078125 215.828125 222.539062 218.132812 219.378906 C 219.066406 218.097656 220.15625 217.027344 221.328125 215.972656 C 221.582031 215.742188 222.003906 215.457031 222.367188 215.152344 C 222.648438 214.910156 222.878906 214.652344 223 214.398438 C 223.078125 214.238281 223.042969 214.125 223.015625 214.050781 C 222.964844 213.9375 222.871094 213.851562 222.695312 213.839844 C 222.644531 213.832031 222.558594 213.84375 222.472656 213.882812 C 222.367188 213.933594 222.1875 214.054688 222.085938 214.09375 C 221.796875 214.222656 221.515625 214.355469 221.226562 214.46875 C 220.371094 214.832031 219.464844 215.082031 218.589844 215.386719 C 218.246094 215.507812 217.902344 215.644531 217.570312 215.765625 C 217.511719 215.714844 217.417969 215.699219 217.355469 215.757812 C 217.230469 215.847656 217.113281 215.921875 216.988281 216.011719 C 215.695312 216.5625 214.476562 217.179688 213.265625 217.890625 C 213.207031 217.839844 213.113281 217.824219 213.050781 217.882812 C 212.492188 218.253906 211.941406 218.640625 211.429688 219.058594 C 211.230469 219.1875 211.019531 219.328125 210.820312 219.472656 C 206.929688 222.136719 204.480469 225.636719 201.804688 229.425781 C 200.878906 230.738281 200.015625 232.167969 198.957031 233.378906 C 197.933594 234.539062 196.742188 235.484375 195.121094 235.875 C 194.980469 235.90625 194.828125 235.933594 194.691406 235.953125 C 187.128906 235.914062 179.605469 234.515625 172.203125 232.132812 C 178.4375 232.667969 185.722656 229.855469 190.722656 226.839844 C 190.828125 226.777344 190.933594 226.710938 191.039062 226.648438 C 193.042969 225.441406 194.777344 223.988281 196.410156 222.316406 C 196.523438 222.210938 196.738281 222.054688 196.914062 221.882812 C 197.074219 221.730469 197.21875 221.578125 197.285156 221.425781 C 197.347656 221.289062 197.367188 221.15625 197.332031 221.03125 C 197.300781 220.902344 197.226562 220.769531 197.066406 220.664062 C 195.050781 219.382812 191.773438 219.390625 188.300781 220.105469 C 183.179688 221.15625 177.640625 223.71875 175.230469 225.675781 C 174.113281 226.578125 173.175781 227.96875 172.113281 229.121094 C 171.246094 230.066406 170.292969 230.84375 169.050781 231 C 162.660156 228.375 153.011719 222.722656 149.375 218.089844 C 149.195312 217.859375 148.863281 217.820312 148.632812 218 C 148.445312 218.144531 148.382812 218.378906 148.457031 218.59375 C 148.425781 218.617188 148.417969 218.65625 148.402344 218.679688 C 148.367188 218.632812 148.332031 218.601562 148.300781 218.554688 C 148.230469 218.476562 148.125 218.472656 148.046875 218.527344 C 147.96875 218.597656 147.964844 218.703125 148.019531 218.78125 C 148.453125 219.308594 148.933594 219.777344 149.425781 220.246094 C 149.472656 220.292969 149.550781 220.308594 149.609375 220.277344 C 149.9375 220.613281 150.273438 220.949219 150.621094 221.246094 C 150.691406 221.3125 150.8125 221.304688 150.867188 221.230469 C 150.867188 221.21875 150.882812 221.222656 150.882812 221.207031 C 152.96875 223.078125 155.695312 225.011719 158.554688 226.765625 C 158.582031 226.847656 158.652344 226.925781 158.742188 226.96875 C 159.191406 227.1875 159.632812 227.40625 160.054688 227.648438 C 160.164062 227.722656 160.289062 227.78125 160.398438 227.855469 C 161.019531 228.222656 161.621094 228.613281 162.199219 229.046875 C 162.429688 229.648438 162.5 230.308594 162.53125 230.960938 C 162.5625 231.695312 162.570312 232.425781 162.6875 233.132812 C 163.625 238.726562 165.113281 243.164062 168.988281 247.480469 C 169.441406 247.972656 172.246094 250.660156 173.65625 251.410156 C 173.96875 251.582031 174.238281 251.664062 174.417969 251.652344 C 174.582031 251.652344 174.699219 251.589844 174.792969 251.496094 C 174.953125 251.347656 175.058594 251.105469 175.113281 250.777344 C 175.171875 250.410156 175.144531 249.90625 175.074219 249.328125 C 174.785156 247.226562 173.726562 244.167969 173.457031 243.492188 C 171.460938 238.566406 168.628906 233.742188 164.691406 230.144531 L 164.71875 230.160156 C 165.632812 230.617188 166.5625 231.0625 167.515625 231.46875 C 168.285156 231.808594 169.074219 232.136719 169.863281 232.4375 C 170.121094 232.53125 170.375 232.628906 170.644531 232.726562 C 170.773438 232.773438 170.902344 232.804688 171.042969 232.855469 C 171.199219 232.90625 171.351562 232.957031 171.507812 233.011719 C 171.996094 233.167969 172.484375 233.328125 172.964844 233.472656 C 174.085938 233.8125 175.226562 234.140625 176.367188 234.445312 C 176.929688 234.589844 177.488281 234.730469 178.035156 234.871094 C 178.1875 234.9375 178.339844 235 178.503906 235.066406 C 178.5 235.09375 178.511719 235.109375 178.519531 235.136719 C 181.277344 244.871094 187.808594 253.335938 197.628906 256.628906 C 198.195312 256.8125 201.839844 258.148438 203.59375 258.617188 C 204.113281 258.753906 204.488281 258.796875 204.640625 258.769531 C 204.835938 258.730469 204.933594 258.625 204.980469 258.5 C 205.023438 258.398438 205.042969 258.277344 204.984375 258.132812 C 204.945312 258.035156 204.871094 257.902344 204.773438 257.761719 C 204.671875 257.625 204.546875 257.484375 204.496094 257.382812 C 204.132812 256.6875 203.734375 256.03125 203.457031 255.3125 C 202.574219 253.039062 201.601562 251.152344 200.09375 249.226562 C 194.578125 242.191406 181.539062 235.644531 181.539062 235.644531 C 189.441406 237.199219 197.433594 237.511719 205.4375 236.121094 C 205.453125 236.125 205.453125 236.125 205.464844 236.128906 C 207.832031 236.488281 209.984375 237.75 212.003906 239.289062 C 214.054688 240.855469 215.96875 242.699219 217.757812 244.199219 C 220.914062 246.835938 224.53125 248.777344 228.503906 249.851562 C 230.710938 250.445312 232.9375 250.746094 235.226562 250.894531 C 235.914062 250.9375 236.585938 250.960938 237.269531 250.992188 C 237.550781 251.007812 237.835938 251.011719 238.121094 251.015625 C 238.132812 251.019531 238.328125 251.0625 238.40625 251.078125 C 238.515625 251.082031 238.585938 251.066406 238.644531 251.035156 C 238.734375 250.992188 238.796875 250.921875 238.824219 250.847656 C 238.863281 250.769531 238.878906 250.664062 238.832031 250.535156 C 238.761719 250.378906 238.601562 250.203125 238.367188 250.042969 C 238 249.808594 237.425781 249.597656 237.191406 249.4375 C 236.128906 248.730469 235.046875 247.867188 234.117188 246.976562 C 232.40625 245.3125 230.96875 243.707031 228.875 242.496094 C 224.0625 239.734375 218.820312 239.140625 213.535156 237.816406 C 211.453125 237.296875 209.503906 236.433594 207.480469 235.71875 C 208.738281 235.460938 209.992188 235.144531 211.253906 234.804688 C 217.824219 232.988281 223.058594 230.710938 227.808594 228.605469 C 227.847656 228.609375 227.898438 228.617188 227.941406 228.613281 C 230.929688 228.304688 233.578125 229.183594 236.089844 230.5 C 238.652344 231.839844 241.058594 233.628906 243.492188 235.097656 C 246.941406 237.171875 251.644531 238.148438 255.621094 237.847656 C 256.824219 237.757812 259.183594 237.578125 260.332031 237.085938 C 260.425781 237.074219 260.507812 237.074219 260.605469 237.0625 C 260.703125 237.050781 260.769531 236.964844 260.769531 236.871094 C 260.757812 236.773438 260.675781 236.707031 260.578125 236.707031 C 260.578125 236.625 260.535156 236.550781 260.46875 236.472656 C 260.433594 236.4375 260.375 236.390625 260.269531 236.359375 C 260.179688 236.332031 259.992188 236.316406 259.902344 236.273438 C 259.636719 236.175781 259.386719 236.042969 259.132812 235.933594 C 258.375 235.597656 257.695312 235.179688 256.992188 234.746094 C 254.871094 233.433594 253.105469 231.683594 250.75 230.765625 C 246.4375 229.109375 242.019531 229.566406 237.53125 229.179688 C 234.914062 228.949219 232.445312 228.03125 229.859375 227.703125 C 230.980469 227.203125 232.085938 226.71875 233.175781 226.269531 C 242.425781 222.390625 251.03125 220.222656 266.550781 225.214844 Z M 163.414062 230.265625 C 163.414062 230.265625 163.398438 230.277344 163.398438 230.277344 C 163.390625 230.246094 163.394531 230.234375 163.382812 230.207031 Z M 170.511719 247.953125 C 170.019531 247.484375 169.632812 247.097656 169.480469 246.953125 C 165.707031 242.746094 164.273438 238.410156 163.351562 232.96875 C 163.316406 232.761719 163.296875 232.542969 163.277344 232.324219 C 163.359375 232.660156 163.453125 233 163.550781 233.324219 C 163.867188 234.484375 164.15625 235.636719 164.574219 236.769531 C 165.761719 240.023438 167.167969 243.4375 169.148438 246.304688 C 169.554688 246.894531 170.054688 247.421875 170.511719 247.953125 Z M 172.527344 249.164062 C 171.765625 248.246094 171.085938 247.246094 170.457031 246.242188 C 168.988281 243.902344 167.824219 241.433594 166.652344 238.925781 C 165.535156 236.519531 164.253906 233.921875 163.617188 231.28125 C 163.878906 232.027344 164.25 232.761719 164.527344 233.480469 C 165.011719 234.707031 165.449219 235.9375 166.019531 237.136719 C 166.761719 238.683594 167.671875 240.179688 168.503906 241.675781 C 169.492188 243.46875 170.535156 245.242188 171.492188 247.054688 C 171.832031 247.742188 172.132812 248.492188 172.527344 249.164062 Z M 164.261719 230.722656 C 168.0625 234.246094 170.796875 238.933594 172.742188 243.726562 C 173.003906 244.378906 174.03125 247.351562 174.316406 249.394531 C 174.390625 249.878906 174.414062 250.316406 174.363281 250.632812 C 174.359375 250.65625 174.355469 250.683594 174.351562 250.710938 C 174.304688 250.3125 174.164062 249.925781 174.09375 249.523438 C 174.015625 249.078125 174.007812 248.601562 173.90625 248.15625 C 173.601562 246.917969 172.960938 245.734375 172.472656 244.5625 C 172.085938 243.664062 171.773438 242.738281 171.34375 241.871094 C 170.617188 240.40625 169.710938 239.03125 168.847656 237.640625 C 167.890625 236.09375 166.960938 234.53125 165.945312 233.003906 C 165.40625 232.214844 164.816406 231.488281 164.261719 230.722656 Z M 173.96875 250.554688 C 173.902344 250.476562 173.835938 250.386719 173.777344 250.308594 C 173.484375 249.601562 173.28125 248.851562 172.984375 248.144531 C 172.691406 247.433594 172.3125 246.765625 171.988281 246.066406 C 171.636719 245.308594 171.34375 244.519531 170.972656 243.773438 C 170.152344 242.128906 169.15625 240.550781 168.277344 238.9375 C 166.957031 236.515625 165.683594 234.042969 164.453125 231.566406 C 164.855469 232.101562 165.269531 232.640625 165.640625 233.199219 C 166.648438 234.710938 167.578125 236.273438 168.535156 237.820312 C 169.386719 239.195312 170.292969 240.558594 171.007812 242.019531 C 171.4375 242.886719 171.753906 243.8125 172.125 244.699219 C 172.621094 245.84375 173.246094 247.011719 173.539062 248.230469 C 173.648438 248.667969 173.65625 249.128906 173.734375 249.574219 C 173.789062 249.90625 173.898438 250.234375 173.96875 250.554688 Z M 173.019531 249.285156 C 172.542969 248.546875 172.207031 247.667969 171.804688 246.886719 C 170.847656 245.074219 169.804688 243.300781 168.816406 241.511719 C 167.984375 240.015625 167.070312 238.53125 166.339844 236.984375 C 165.785156 235.800781 165.339844 234.582031 164.871094 233.359375 C 164.730469 232.984375 164.554688 232.621094 164.398438 232.246094 C 165.546875 234.5625 166.738281 236.859375 167.964844 239.121094 C 168.832031 240.730469 169.816406 242.289062 170.632812 243.945312 C 171.003906 244.695312 171.300781 245.472656 171.652344 246.230469 C 171.976562 246.914062 172.359375 247.585938 172.636719 248.289062 C 172.777344 248.609375 172.898438 248.953125 173.019531 249.285156 Z M 171.972656 249.0625 C 171.613281 248.683594 171.257812 248.289062 170.929688 247.882812 C 170.425781 247.289062 169.878906 246.730469 169.441406 246.09375 C 167.480469 243.257812 166.082031 239.875 164.90625 236.648438 C 164.625 235.859375 164.398438 235.066406 164.171875 234.273438 C 164.816406 235.929688 165.585938 237.550781 166.304688 239.085938 C 167.476562 241.59375 168.664062 244.078125 170.128906 246.433594 C 170.703125 247.335938 171.308594 248.226562 171.972656 249.0625 Z M 195.585938 221.628906 C 193.949219 222.476562 192.070312 223.042969 190.457031 223.828125 C 184.359375 226.773438 177.964844 229.269531 171.328125 230.726562 C 176.433594 228.417969 181.820312 226.546875 187.03125 224.511719 C 189.90625 223.386719 192.554688 222.039062 195.585938 221.628906 Z M 191.113281 225.671875 C 190.960938 225.769531 190.796875 225.878906 190.632812 225.976562 C 190.527344 226.039062 190.421875 226.105469 190.316406 226.167969 C 185.253906 229.226562 177.785156 232.089844 171.550781 231.289062 C 173.804688 231.066406 176 230.457031 178.230469 229.988281 C 182.503906 229.058594 187.125 227.847656 191.113281 225.671875 Z M 196.449219 221.144531 C 196.417969 221.167969 196.402344 221.179688 196.371094 221.203125 C 192.960938 221.457031 190.070312 222.953125 186.90625 224.195312 C 182.242188 226.019531 177.441406 227.699219 172.832031 229.695312 C 178.195312 226.617188 183.890625 223.578125 189.902344 222.210938 C 192.070312 221.691406 194.210938 221.085938 196.449219 221.144531 Z M 195.546875 222.054688 C 190.9375 226.441406 184.203125 228.34375 178.152344 229.621094 C 176.328125 230.007812 174.535156 230.492188 172.699219 230.78125 C 178.910156 229.285156 184.890625 226.914062 190.625 224.148438 C 192.179688 223.398438 193.957031 222.84375 195.546875 222.054688 Z M 193.417969 220.285156 C 192.117188 220.363281 190.769531 220.675781 189.640625 220.875 C 186.191406 221.445312 179.726562 224.132812 176.753906 226.160156 C 175.671875 226.90625 174.628906 227.671875 173.566406 228.40625 C 174.238281 227.582031 174.898438 226.753906 175.644531 226.15625 C 178 224.265625 183.421875 221.761719 188.417969 220.734375 C 190.195312 220.382812 191.914062 220.195312 193.417969 220.285156 Z M 195.472656 220.800781 C 193.5625 220.902344 191.695312 221.417969 189.8125 221.847656 C 184.136719 223.144531 178.730469 225.90625 173.636719 228.8125 C 174.746094 228.042969 175.824219 227.238281 176.945312 226.472656 C 179.878906 224.46875 186.269531 221.808594 189.691406 221.246094 C 190.679688 221.078125 191.816406 220.816406 192.960938 220.699219 C 193.828125 220.59375 194.695312 220.597656 195.472656 220.800781 Z M 179.40625 235.683594 C 179.40625 235.683594 179.394531 235.683594 179.394531 235.683594 L 179.386719 235.640625 Z M 196.152344 255.273438 C 195.390625 254.960938 194.660156 254.617188 193.9375 254.230469 C 189.953125 251.339844 186.21875 246.222656 183.640625 242.773438 C 182.023438 240.597656 180.355469 238.832031 179.664062 236.199219 C 182.066406 241.429688 186.480469 245.265625 190.296875 249.449219 C 192.195312 251.5625 193.925781 253.6875 196.152344 255.273438 Z M 200.828125 256.945312 C 199.429688 256.46875 198.109375 255.988281 197.800781 255.886719 L 197.789062 255.882812 C 194.847656 254.28125 192.832031 251.71875 190.566406 249.210938 C 187.085938 245.375 183.097656 241.851562 180.617188 237.28125 C 182.007812 239.164062 183.425781 241.066406 184.996094 242.773438 C 187.902344 245.9375 191.308594 248.625 194.519531 251.488281 C 196.84375 253.558594 198.507812 255.445312 200.828125 256.945312 Z M 202.738281 255.5625 C 199.867188 252.175781 196.070312 249.652344 192.597656 246.886719 C 188.394531 243.542969 184.589844 239.886719 180.820312 236.070312 C 180.972656 236.136719 181.125 236.214844 181.289062 236.292969 C 181.621094 236.753906 182.050781 237.199219 182.539062 237.628906 C 183.796875 238.734375 185.382812 239.726562 186.308594 240.550781 C 189.308594 243.230469 192.292969 245.835938 195.527344 248.230469 C 197.828125 249.917969 200.125 251.3125 201.863281 253.503906 C 202.167969 254.148438 202.453125 254.816406 202.722656 255.503906 C 202.730469 255.535156 202.730469 255.546875 202.738281 255.5625 Z M 203.558594 257.230469 C 196.199219 251.320312 188.5625 245.785156 182.539062 238.464844 C 182.019531 237.828125 181.433594 237.25 180.878906 236.648438 C 184.554688 240.351562 188.28125 243.902344 192.378906 247.175781 C 196.257812 250.265625 200.515625 253.035156 203.464844 257.054688 C 203.496094 257.113281 203.527344 257.171875 203.558594 257.230469 Z M 191.929688 253.058594 C 186.96875 249.855469 183.234375 245.074219 180.839844 239.613281 C 181.578125 240.757812 182.464844 241.816406 183.347656 242.996094 C 185.5625 245.941406 188.59375 250.097656 191.929688 253.058594 Z M 203.804688 257.894531 C 203.570312 257.828125 203.296875 257.757812 202.988281 257.667969 C 202.832031 257.617188 202.675781 257.578125 202.523438 257.527344 C 199.351562 255.929688 197.535156 253.722656 194.75 251.238281 C 191.546875 248.394531 188.15625 245.707031 185.246094 242.554688 C 183.839844 241.023438 182.5625 239.332031 181.300781 237.648438 C 181.625 237.996094 181.949219 238.34375 182.253906 238.71875 C 188.636719 246.429688 196.804688 252.1875 204.546875 258.496094 Z M 201.1875 252.210938 C 199.582031 250.5625 197.664062 249.351562 195.722656 247.9375 C 192.484375 245.558594 189.515625 242.953125 186.527344 240.289062 C 185.601562 239.464844 184.015625 238.46875 182.753906 237.363281 C 182.527344 237.167969 182.316406 236.972656 182.121094 236.765625 C 184.339844 238.199219 186.390625 239.875 188.527344 241.417969 C 192.796875 244.457031 197.035156 247.429688 200.613281 251.238281 C 200.820312 251.554688 201.011719 251.882812 201.1875 252.210938 Z M 199.292969 249.394531 C 196.0625 246.300781 192.421875 243.75 188.765625 241.117188 C 187.234375 240.007812 185.742188 238.839844 184.199219 237.730469 C 189.898438 240.703125 195.375 244.492188 199.292969 249.394531 Z M 219.257812 216.210938 C 217.03125 218.207031 215.496094 220.878906 213.566406 223.140625 C 210.003906 227.339844 205.761719 230.945312 200.957031 233.667969 C 200.035156 234.183594 199.128906 234.863281 198.175781 235.398438 C 198.117188 235.417969 198.074219 235.453125 198.015625 235.46875 C 198.167969 235.371094 198.304688 235.273438 198.453125 235.175781 C 199.558594 234.445312 200.617188 233.667969 201.6875 232.894531 C 205.914062 229.808594 209.660156 226.351562 213.183594 222.484375 C 215.085938 220.410156 216.886719 217.84375 219.257812 216.210938 Z M 211.796875 227.558594 C 211.316406 228.195312 210.816406 228.792969 210.324219 229.324219 C 208.164062 231.585938 204.253906 233.625 201.347656 234.785156 C 200.625 235.074219 199.875 235.359375 199.089844 235.613281 C 200.367188 235.074219 201.597656 234.40625 202.804688 233.785156 C 205.949219 232.152344 209.160156 230.097656 211.796875 227.558594 Z M 213.679688 218.429688 C 212.6875 219.230469 211.726562 220.078125 210.816406 220.957031 C 208.53125 223.148438 206.558594 225.765625 204.511719 228.167969 C 203.230469 229.667969 201.929688 231.109375 200.507812 232.476562 C 201.105469 231.691406 201.707031 230.910156 202.351562 230.160156 C 203.925781 228.359375 205.640625 226.671875 207.15625 224.820312 C 208.179688 223.566406 208.976562 222.136719 210.015625 220.871094 C 210.402344 220.570312 210.789062 220.277344 211.210938 219.996094 C 212.03125 219.4375 212.859375 218.90625 213.679688 218.429688 Z M 217.109375 216.691406 C 216.703125 216.953125 216.308594 217.226562 215.964844 217.523438 C 214.90625 218.394531 213.953125 219.433594 212.964844 220.382812 C 210 223.191406 207.238281 226.171875 204.472656 229.175781 C 203.378906 230.351562 202.242188 231.441406 201.050781 232.480469 C 202.367188 231.175781 203.582031 229.832031 204.796875 228.417969 C 206.84375 226.011719 208.8125 223.421875 211.082031 221.230469 C 212.503906 219.863281 214.035156 218.582031 215.632812 217.390625 C 216.105469 217.140625 216.601562 216.910156 217.109375 216.691406 Z M 218.617188 216.242188 C 216.445312 217.898438 214.726562 220.285156 212.9375 222.242188 C 209.429688 226.085938 205.714844 229.535156 201.492188 232.589844 C 201.371094 232.679688 201.246094 232.769531 201.136719 232.859375 C 202.394531 231.777344 203.589844 230.640625 204.734375 229.40625 C 207.511719 226.417969 210.257812 223.4375 213.210938 220.625 C 214.199219 219.6875 215.136719 218.648438 216.191406 217.789062 C 216.890625 217.222656 217.734375 216.695312 218.617188 216.242188 Z M 214.683594 223.277344 C 214.214844 224.011719 213.742188 224.761719 213.261719 225.480469 C 210.398438 228.847656 206.464844 231.464844 202.65625 233.4375 C 202.390625 233.570312 202.140625 233.707031 201.875 233.855469 C 202.023438 233.769531 202.15625 233.695312 202.292969 233.609375 C 206.90625 230.980469 211.195312 227.339844 214.683594 223.277344 Z M 208.777344 221.929688 C 208.148438 222.832031 207.566406 223.75 206.878906 224.601562 C 205.632812 226.144531 204.226562 227.570312 202.898438 229.03125 C 204.730469 226.449219 206.496094 224.011719 208.777344 221.929688 Z M 220.632812 215.578125 C 219.824219 216.3125 219.054688 217.070312 218.355469 217.890625 C 218.355469 217.890625 218.34375 217.875 218.34375 217.875 C 218.257812 217.820312 218.148438 217.828125 218.09375 217.914062 C 217.019531 219.394531 216.148438 220.96875 214.976562 222.375 C 212.324219 225.589844 209.148438 228.554688 205.699219 231.003906 C 208.703125 228.78125 211.441406 226.203125 213.859375 223.347656 C 215.992188 220.835938 217.652344 217.804688 220.328125 215.785156 C 220.421875 215.71875 220.523438 215.65625 220.632812 215.578125 Z M 236.699219 249.996094 C 236.078125 249.816406 235.460938 249.609375 234.882812 249.328125 C 234.066406 248.925781 233.375 248.332031 232.539062 247.980469 C 227.632812 245.960938 222.699219 243.867188 217.980469 241.441406 C 216.554688 240.714844 215.179688 239.902344 213.808594 239.074219 C 213.625 238.964844 213.425781 238.839844 213.242188 238.714844 C 214.191406 239.21875 215.238281 239.53125 216.214844 239.945312 C 218.285156 240.8125 220.320312 241.71875 222.390625 242.585938 C 225.800781 244.019531 229.269531 245.464844 232.519531 247.238281 C 233.777344 247.921875 234.960938 248.839844 236.160156 249.625 C 236.355469 249.765625 236.527344 249.875 236.699219 249.996094 Z M 233.433594 247.367188 C 233.1875 247.222656 232.953125 247.074219 232.703125 246.941406 C 229.4375 245.167969 225.957031 243.722656 222.535156 242.273438 C 220.464844 241.402344 218.429688 240.5 216.359375 239.628906 C 215.867188 239.414062 215.339844 239.238281 214.832031 239.035156 C 215.863281 239.347656 216.902344 239.632812 217.914062 239.996094 C 220.460938 240.917969 222.933594 242.050781 225.476562 242.996094 C 227.585938 243.777344 230.144531 244.46875 231.960938 245.90625 C 232.453125 246.386719 232.929688 246.871094 233.433594 247.367188 Z M 227.960938 248.917969 C 224.34375 247.839844 221.042969 246.019531 218.140625 243.597656 C 217.039062 242.683594 215.917969 241.652344 214.742188 240.628906 C 215.425781 241.074219 216.113281 241.519531 216.785156 241.980469 C 218.90625 243.464844 221.03125 244.910156 223.234375 246.289062 C 224.773438 247.261719 226.335938 248.171875 227.960938 248.917969 Z M 236.058594 250.175781 L 235.84375 250.167969 C 235.273438 250.09375 234.695312 249.988281 234.136719 249.84375 C 232.835938 249.503906 231.703125 248.890625 230.484375 248.371094 C 228.929688 247.691406 227.320312 247.085938 225.789062 246.316406 C 224.511719 245.667969 223.324219 244.882812 222.046875 244.222656 C 219.957031 243.144531 217.921875 241.984375 215.9375 240.75 C 216.558594 241.105469 217.183594 241.433594 217.820312 241.765625 C 222.554688 244.191406 227.5 246.289062 232.402344 248.324219 C 233.226562 248.671875 233.917969 249.269531 234.722656 249.652344 C 235.160156 249.871094 235.621094 250.039062 236.085938 250.179688 Z M 230.53125 244.582031 C 228.953125 243.78125 227.171875 243.238281 225.613281 242.667969 C 223.066406 241.722656 220.59375 240.585938 218.046875 239.667969 C 217.726562 239.550781 217.40625 239.445312 217.070312 239.335938 C 220.984375 240.175781 224.820312 241 228.417969 243.074219 C 229.199219 243.519531 229.890625 244.035156 230.53125 244.582031 Z M 233.304688 249.96875 C 232.359375 249.859375 231.421875 249.722656 230.488281 249.546875 C 227.980469 248.714844 225.683594 247.417969 223.417969 245.992188 C 221.609375 244.851562 219.859375 243.683594 218.101562 242.472656 C 219.339844 243.195312 220.597656 243.882812 221.886719 244.546875 C 223.148438 245.207031 224.351562 245.992188 225.628906 246.640625 C 227.160156 247.410156 228.765625 248.03125 230.339844 248.699219 C 231.339844 249.128906 232.289062 249.617188 233.304688 249.96875 Z M 252.199219 237.0625 C 249.25 236.796875 246.195312 235.890625 243.789062 234.441406 C 241.921875 233.320312 240.070312 232.011719 238.15625 230.859375 C 238.460938 230.988281 238.75 231.128906 239.023438 231.277344 C 242.945312 233.429688 247.078125 235.882812 251.476562 236.90625 C 251.714844 236.957031 251.960938 237.011719 252.199219 237.0625 Z M 253.519531 233.164062 C 252.363281 232.792969 251.132812 232.609375 249.910156 232.386719 C 248.273438 232.101562 246.632812 231.707031 244.984375 231.523438 C 244.066406 231.417969 243.117188 231.335938 242.1875 231.214844 C 241.128906 230.898438 240.054688 230.578125 239 230.25 C 239.011719 230.25 239.039062 230.253906 239.050781 230.257812 C 240.886719 230.5625 242.722656 230.570312 244.566406 230.742188 C 247.25 230.980469 250.015625 231.445312 252.519531 232.480469 C 252.863281 232.710938 253.191406 232.9375 253.519531 233.164062 Z M 250.378906 231.382812 C 248.488281 230.851562 246.527344 230.566406 244.605469 230.398438 C 242.910156 230.25 241.210938 230.222656 239.527344 229.980469 C 243.199219 230.132812 246.832031 230.023438 250.378906 231.382812 Z M 256.660156 237 C 256.289062 237.035156 255.960938 237.066406 255.660156 237.085938 C 254.289062 237.027344 252.929688 236.878906 251.546875 236.566406 C 247.238281 235.558594 243.203125 233.1875 239.355469 231.0625 C 239.5625 231.121094 239.773438 231.167969 239.996094 231.21875 C 240.835938 231.554688 241.671875 231.917969 242.507812 232.265625 C 244.957031 233.304688 247.339844 234.585938 249.867188 235.449219 C 252.066406 236.175781 254.355469 236.769531 256.660156 237 Z M 258.707031 236.730469 L 258.664062 236.738281 C 255.714844 236.730469 252.777344 236.046875 249.992188 235.101562 C 247.472656 234.257812 245.105469 232.976562 242.65625 231.9375 C 242.324219 231.804688 241.996094 231.65625 241.667969 231.511719 C 241.8125 231.535156 241.957031 231.558594 242.105469 231.566406 C 245.453125 232.570312 248.804688 233.550781 252.128906 234.59375 C 253.160156 234.917969 254.210938 235.207031 255.238281 235.558594 C 256.378906 235.96875 257.535156 236.4375 258.734375 236.722656 Z M 257.988281 236.160156 C 257.097656 235.882812 256.230469 235.542969 255.355469 235.242188 C 254.332031 234.875 253.28125 234.585938 252.238281 234.257812 C 249.542969 233.410156 246.828125 232.613281 244.125 231.808594 C 244.40625 231.835938 244.671875 231.867188 244.949219 231.898438 C 246.585938 232.078125 248.230469 232.472656 249.863281 232.757812 C 251.523438 233.050781 253.21875 233.28125 254.695312 234.042969 C 255.300781 234.488281 255.910156 234.921875 256.550781 235.320312 C 257.019531 235.597656 257.488281 235.890625 257.988281 236.160156 Z M 247.90625 220.292969 C 247.875 220.3125 247.859375 220.324219 247.828125 220.347656 C 247.679688 220.433594 247.519531 220.515625 247.371094 220.597656 C 247.355469 220.609375 247.339844 220.621094 247.324219 220.632812 C 247.296875 220.640625 247.265625 220.648438 247.25 220.660156 C 247.453125 220.503906 247.640625 220.34375 247.832031 220.171875 C 247.839844 220.199219 247.847656 220.230469 247.855469 220.257812 C 247.867188 220.273438 247.878906 220.289062 247.90625 220.292969 Z M 261.410156 212.066406 C 259.914062 213.652344 258.398438 215.179688 256.59375 216.472656 C 255.144531 217.5 253.421875 218.210938 251.828125 218.957031 C 250.804688 219.429688 249.746094 219.882812 248.675781 220.304688 L 248.734375 220.273438 C 249.539062 219.820312 250.316406 219.339844 251.097656 218.855469 C 251.605469 218.558594 252.117188 218.246094 252.625 217.949219 C 255.042969 216.523438 257.394531 215.277344 259.617188 213.550781 C 260.207031 213.078125 260.816406 212.578125 261.410156 212.066406 Z M 266.214844 204.160156 C 262.617188 205.855469 259.382812 208.230469 256.539062 211.035156 C 254.785156 212.78125 253.046875 214.597656 251.351562 216.410156 C 250.78125 217.035156 250.191406 217.671875 249.558594 218.246094 C 249.8125 217.921875 250.054688 217.582031 250.285156 217.238281 C 250.550781 216.929688 250.816406 216.621094 251.082031 216.3125 C 253.113281 213.839844 255.398438 211.570312 257.769531 209.433594 C 259.046875 208.285156 260.292969 207.011719 261.761719 206.113281 C 262.703125 205.640625 263.667969 205.199219 264.628906 204.769531 C 265.164062 204.558594 265.683594 204.359375 266.214844 204.160156 Z M 264.835938 205.261719 C 261.683594 207.382812 258.980469 210.152344 256.257812 212.882812 C 254.613281 214.539062 252.761719 216.054688 250.945312 217.519531 C 250.667969 217.746094 250.398438 217.972656 250.117188 218.210938 C 250.632812 217.714844 251.121094 217.183594 251.613281 216.652344 C 253.292969 214.839844 255.03125 213.023438 256.785156 211.277344 C 259.191406 208.917969 261.886719 206.859375 264.835938 205.261719 Z M 267.613281 204.042969 C 266.699219 204.777344 265.84375 205.558594 264.953125 206.320312 C 262.632812 208.304688 260.296875 210.214844 258.046875 212.273438 C 256.496094 213.6875 254.898438 215.136719 253.222656 216.398438 C 252.332031 217.066406 251.429688 217.707031 250.527344 218.359375 C 250.746094 218.175781 250.964844 217.996094 251.183594 217.816406 C 253.003906 216.335938 254.867188 214.820312 256.53125 213.140625 C 259.917969 209.707031 263.304688 206.207031 267.613281 204.042969 Z M 268.753906 203.617188 C 268.128906 204.394531 267.515625 205.1875 266.804688 205.914062 C 264.421875 208.289062 261.730469 210.320312 259.128906 212.445312 C 256.515625 214.597656 253.785156 216.703125 250.90625 218.527344 L 250.847656 218.558594 C 251.71875 217.941406 252.589844 217.308594 253.449219 216.675781 C 255.140625 215.40625 256.738281 213.945312 258.304688 212.53125 C 260.554688 210.472656 262.886719 208.574219 265.207031 206.589844 C 266.355469 205.585938 267.496094 204.523438 268.753906 203.617188 Z M 259.53125 207.363281 C 258.855469 207.960938 258.203125 208.585938 257.539062 209.179688 C 255.59375 210.9375 253.703125 212.785156 251.96875 214.75 C 252.558594 213.859375 253.1875 212.960938 253.90625 212.101562 C 255.515625 210.15625 257.433594 208.636719 259.53125 207.363281 Z M 264.648438 208.394531 C 264.429688 208.667969 264.210938 208.945312 263.988281 209.222656 C 262.535156 210.609375 260.9375 212.058594 259.394531 213.257812 C 257.988281 214.34375 256.519531 215.246094 255.027344 216.117188 C 256.5 215.027344 257.941406 213.878906 259.359375 212.710938 C 261.117188 211.277344 262.925781 209.875 264.648438 208.394531 Z M 284.265625 225.085938 C 282.496094 224.792969 280.699219 224.613281 278.894531 224.542969 C 276.164062 224.433594 273.480469 224.453125 270.722656 224.515625 C 269.539062 224.542969 268.332031 224.566406 267.144531 224.457031 C 268.90625 224.28125 270.671875 223.886719 272.535156 223.761719 C 276.4375 223.492188 280.46875 223.929688 284.265625 225.085938 Z M 285.695312 229.878906 C 281.566406 229.953125 277.320312 229.332031 273.542969 227.976562 C 271.738281 227.324219 270.015625 226.496094 268.277344 225.664062 C 269.953125 226.203125 271.636719 226.6875 273.320312 227.167969 C 277.4375 228.335938 281.496094 229.457031 285.695312 229.878906 Z M 288.828125 229.675781 C 288.8125 229.675781 288.800781 229.683594 288.785156 229.683594 C 283.488281 229.636719 278.507812 228.265625 273.414062 226.820312 C 271.796875 226.359375 270.191406 225.890625 268.582031 225.375 C 268.769531 225.390625 268.957031 225.394531 269.132812 225.394531 C 270.652344 225.8125 272.167969 226.3125 273.679688 226.699219 C 277.371094 227.652344 281.101562 228.367188 284.863281 229.058594 C 286.296875 229.328125 287.5625 229.554688 288.828125 229.675781 Z M 287.234375 226.152344 C 283.871094 225.605469 280.453125 225.375 277.089844 225.335938 C 275.265625 225.316406 273.273438 224.988281 271.441406 225.007812 C 270.996094 225.015625 270.558594 225.027344 270.136719 225.042969 C 269.847656 224.996094 269.558594 224.949219 269.269531 224.890625 C 269.757812 224.886719 270.230469 224.882812 270.722656 224.867188 C 273.480469 224.804688 276.164062 224.785156 278.878906 224.894531 C 281.558594 224.996094 284.183594 225.332031 286.789062 225.976562 C 286.890625 226.019531 286.980469 226.046875 287.070312 226.085938 C 287.121094 226.109375 287.183594 226.132812 287.234375 226.152344 Z M 295.5625 228.613281 C 290.535156 228.90625 285.414062 228.148438 280.507812 227.257812 C 277.808594 226.777344 275.148438 226.3125 272.480469 225.726562 C 272.636719 225.75 272.785156 225.761719 272.945312 225.785156 C 275.433594 226.140625 277.886719 226.449219 280.394531 226.699219 C 284.9375 227.140625 290.980469 227.980469 295.5625 228.613281 Z M 292.480469 227.824219 C 288.488281 227.285156 283.996094 226.691406 280.421875 226.339844 C 277.929688 226.09375 275.476562 225.785156 273 225.429688 C 272.894531 225.414062 272.789062 225.398438 272.683594 225.378906 C 274.144531 225.464844 275.683594 225.667969 277.101562 225.675781 C 281.128906 225.722656 285.273438 226.058594 289.273438 226.882812 C 290.3125 227.238281 291.398438 227.546875 292.480469 227.824219 Z M 293.480469 229.023438 C 292.535156 229.171875 291.597656 229.292969 290.652344 229.4375 C 288.722656 229.390625 287.011719 229.089844 284.949219 228.707031 C 281.265625 228.027344 277.597656 227.335938 273.980469 226.410156 C 276.132812 226.847656 278.277344 227.230469 280.449219 227.613281 C 284.691406 228.371094 289.117188 229.046875 293.480469 229.023438 Z M 293.480469 229.023438 " fill-opacity="1" fill-rule="evenodd"/></g></g></g><path fill="#ffffff" d="M 52.289062 160.402344 L 322.679688 160.402344 C 325.042969 160.402344 327.304688 161.339844 328.976562 163.007812 C 330.644531 164.679688 331.585938 166.945312 331.585938 169.304688 L 331.585938 187.117188 C 331.585938 189.476562 330.644531 191.742188 328.976562 193.414062 C 327.304688 195.082031 325.042969 196.019531 322.679688 196.019531 L 52.289062 196.019531 C 47.371094 196.019531 43.386719 192.035156 43.386719 187.117188 L 43.386719 169.304688 C 43.386719 164.386719 47.371094 160.402344 52.289062 160.402344 " fill-opacity="1" fill-rule="nonzero"/><g fill="#b3936f" fill-opacity="1"><g transform="translate(54.012711, 184.423281)"><g><path d="M 15.328125 -1.734375 C 13.609375 -0.429688 11.546875 0.21875 9.140625 0.21875 C 6.734375 0.21875 4.796875 -0.550781 3.328125 -2.09375 C 1.859375 -3.632812 1.125 -5.554688 1.125 -7.859375 C 1.125 -10.171875 1.832031 -12.09375 3.25 -13.625 C 4.664062 -15.164062 6.570312 -15.9375 8.96875 -15.9375 C 10.082031 -15.9375 11.191406 -15.785156 12.296875 -15.484375 C 13.410156 -15.191406 14.25 -14.882812 14.8125 -14.5625 L 14.8125 -11.6875 L 14.5625 -11.734375 C 14.1875 -13.085938 13.535156 -14.039062 12.609375 -14.59375 C 11.691406 -15.144531 10.476562 -15.421875 8.96875 -15.421875 C 7.050781 -15.421875 5.585938 -14.726562 4.578125 -13.34375 C 3.578125 -11.957031 3.078125 -10.144531 3.078125 -7.90625 C 3.078125 -5.675781 3.609375 -3.867188 4.671875 -2.484375 C 5.734375 -1.109375 7.226562 -0.421875 9.15625 -0.421875 C 10.53125 -0.421875 11.675781 -0.585938 12.59375 -0.921875 C 13.519531 -1.265625 14.429688 -1.757812 15.328125 -2.40625 Z M 15.328125 -1.734375 "/></g></g></g><g fill="#b3936f" fill-opacity="1"><g transform="translate(73.255845, 184.423281)"><g><path d="M 8.609375 -15.9375 C 11.023438 -15.9375 12.957031 -15.195312 14.40625 -13.71875 C 15.851562 -12.25 16.578125 -10.335938 16.578125 -7.984375 C 16.578125 -5.640625 15.875 -3.6875 14.46875 -2.125 C 13.0625 -0.5625 11.160156 0.21875 8.765625 0.21875 C 6.367188 0.21875 4.4375 -0.566406 2.96875 -2.140625 C 1.507812 -3.710938 0.78125 -5.671875 0.78125 -8.015625 C 0.78125 -10.359375 1.476562 -12.265625 2.875 -13.734375 C 4.28125 -15.203125 6.191406 -15.9375 8.609375 -15.9375 Z M 8.75 -0.296875 C 10.664062 -0.296875 12.117188 -0.988281 13.109375 -2.375 C 14.109375 -3.757812 14.609375 -5.582031 14.609375 -7.84375 C 14.609375 -10.101562 14.082031 -11.929688 13.03125 -13.328125 C 11.988281 -14.722656 10.507812 -15.421875 8.59375 -15.421875 C 6.6875 -15.421875 5.234375 -14.726562 4.234375 -13.34375 C 3.242188 -11.96875 2.75 -10.144531 2.75 -7.875 C 2.75 -5.601562 3.269531 -3.769531 4.3125 -2.375 C 5.363281 -0.988281 6.84375 -0.296875 8.75 -0.296875 Z M 8.75 -0.296875 "/></g></g></g><g fill="#b3936f" fill-opacity="1"><g transform="translate(93.847754, 184.423281)"><g><path d="M 0.34375 -15.734375 L 13.28125 -15.734375 L 13.28125 -12.5 L 13.0625 -12.546875 C 13.0625 -14.378906 11.25 -15.296875 7.625 -15.296875 L 7.625 -5.078125 C 7.625 -2.859375 7.75 -1.507812 8 -1.03125 C 8.09375 -0.851562 8.25 -0.695312 8.46875 -0.5625 C 8.695312 -0.425781 8.9375 -0.34375 9.1875 -0.3125 C 9.445312 -0.28125 9.800781 -0.265625 10.25 -0.265625 L 10.296875 0 L 3.375 0 L 3.421875 -0.265625 C 3.867188 -0.265625 4.222656 -0.273438 4.484375 -0.296875 C 4.742188 -0.328125 4.984375 -0.414062 5.203125 -0.5625 C 5.421875 -0.707031 5.578125 -0.863281 5.671875 -1.03125 C 5.773438 -1.195312 5.863281 -1.488281 5.9375 -1.90625 C 6.007812 -2.414062 6.046875 -3.472656 6.046875 -5.078125 L 6.046875 -15.296875 C 2.421875 -15.296875 0.609375 -14.378906 0.609375 -12.546875 L 0.34375 -12.5 Z M 0.34375 -15.734375 "/></g></g></g><g fill="#b3936f" fill-opacity="1"><g transform="translate(110.708072, 184.423281)"><g><path d="M 0.34375 -15.734375 L 13.28125 -15.734375 L 13.28125 -12.5 L 13.0625 -12.546875 C 13.0625 -14.378906 11.25 -15.296875 7.625 -15.296875 L 7.625 -5.078125 C 7.625 -2.859375 7.75 -1.507812 8 -1.03125 C 8.09375 -0.851562 8.25 -0.695312 8.46875 -0.5625 C 8.695312 -0.425781 8.9375 -0.34375 9.1875 -0.3125 C 9.445312 -0.28125 9.800781 -0.265625 10.25 -0.265625 L 10.296875 0 L 3.375 0 L 3.421875 -0.265625 C 3.867188 -0.265625 4.222656 -0.273438 4.484375 -0.296875 C 4.742188 -0.328125 4.984375 -0.414062 5.203125 -0.5625 C 5.421875 -0.707031 5.578125 -0.863281 5.671875 -1.03125 C 5.773438 -1.195312 5.863281 -1.488281 5.9375 -1.90625 C 6.007812 -2.414062 6.046875 -3.472656 6.046875 -5.078125 L 6.046875 -15.296875 C 2.421875 -15.296875 0.609375 -14.378906 0.609375 -12.546875 L 0.34375 -12.5 Z M 0.34375 -15.734375 "/></g></g></g><g fill="#b3936f" fill-opacity="1"><g transform="translate(127.568386, 184.423281)"><g><path d="M 9.953125 -0.265625 C 10.523438 -0.265625 10.925781 -0.3125 11.15625 -0.40625 C 11.394531 -0.5 11.515625 -0.726562 11.515625 -1.09375 C 11.515625 -1.46875 11.113281 -2.742188 10.3125 -4.921875 L 3.46875 -4.921875 C 2.820312 -3.015625 2.5 -1.816406 2.5 -1.328125 C 2.5 -0.847656 2.617188 -0.550781 2.859375 -0.4375 C 3.109375 -0.320312 3.554688 -0.265625 4.203125 -0.265625 L 4.25 0 L -0.8125 0 L -0.765625 -0.265625 C -0.328125 -0.265625 0.0078125 -0.300781 0.25 -0.375 C 0.5 -0.457031 0.769531 -0.660156 1.0625 -0.984375 C 1.351562 -1.304688 1.632812 -1.773438 1.90625 -2.390625 C 2.175781 -3.003906 2.5 -3.863281 2.875 -4.96875 L 4.875 -10.75 C 5.582031 -12.789062 5.9375 -14.023438 5.9375 -14.453125 C 5.9375 -14.890625 5.832031 -15.171875 5.625 -15.296875 C 5.414062 -15.421875 5.007812 -15.484375 4.40625 -15.484375 L 4.359375 -15.734375 L 8.078125 -15.734375 L 12.046875 -4.96875 C 12.722656 -3.1875 13.175781 -2.054688 13.40625 -1.578125 C 13.644531 -1.097656 13.867188 -0.789062 14.078125 -0.65625 C 14.453125 -0.394531 14.921875 -0.265625 15.484375 -0.265625 L 15.53125 0 L 9.921875 0 Z M 6.8125 -14.53125 L 3.640625 -5.46875 L 10.140625 -5.46875 Z M 6.8125 -14.53125 "/></g></g></g><g fill="#b3936f" fill-opacity="1"><g transform="translate(145.5302, 184.423281)"><g><path d="M 15.046875 -4.203125 L 15.046875 -1.421875 C 14.296875 -0.953125 13.390625 -0.5625 12.328125 -0.25 C 11.273438 0.0625 10.203125 0.21875 9.109375 0.21875 C 6.722656 0.21875 4.796875 -0.550781 3.328125 -2.09375 C 1.859375 -3.632812 1.125 -5.554688 1.125 -7.859375 C 1.125 -10.171875 1.832031 -12.09375 3.25 -13.625 C 4.664062 -15.164062 6.570312 -15.9375 8.96875 -15.9375 C 10.019531 -15.9375 11.078125 -15.789062 12.140625 -15.5 C 13.203125 -15.207031 13.988281 -14.894531 14.5 -14.5625 L 14.5 -11.6875 L 14.25 -11.734375 C 14.082031 -12.929688 13.5 -13.84375 12.5 -14.46875 C 11.5 -15.101562 10.320312 -15.421875 8.96875 -15.421875 C 7.050781 -15.421875 5.585938 -14.726562 4.578125 -13.34375 C 3.578125 -11.96875 3.078125 -10.144531 3.078125 -7.875 C 3.078125 -5.601562 3.601562 -3.769531 4.65625 -2.375 C 5.707031 -0.988281 7.234375 -0.296875 9.234375 -0.296875 C 11.234375 -0.296875 12.644531 -0.925781 13.46875 -2.1875 L 13.46875 -3.9375 C 13.46875 -5.601562 13.375 -6.625 13.1875 -7 C 13 -7.382812 12.457031 -7.578125 11.5625 -7.578125 L 11.515625 -7.796875 L 17.015625 -7.796875 L 16.96875 -7.578125 C 16.113281 -7.578125 15.578125 -7.375 15.359375 -6.96875 C 15.148438 -6.5625 15.046875 -5.640625 15.046875 -4.203125 Z M 15.046875 -4.203125 "/></g></g></g><g fill="#b3936f" fill-opacity="1"><g transform="translate(166.639122, 184.423281)"><g><path d="M 12.453125 0 L 1.125 0 L 1.171875 -0.265625 C 1.921875 -0.265625 2.46875 -0.410156 2.8125 -0.703125 C 3.1875 -1.015625 3.375 -2.472656 3.375 -5.078125 L 3.375 -10.65625 C 3.375 -12.257812 3.320312 -13.359375 3.21875 -13.953125 C 3.125 -14.546875 2.988281 -14.914062 2.8125 -15.0625 C 2.46875 -15.34375 1.921875 -15.484375 1.171875 -15.484375 L 1.125 -15.734375 L 11.625 -15.734375 L 11.625 -12.5 L 11.359375 -12.546875 C 11.359375 -13.546875 10.828125 -14.238281 9.765625 -14.625 C 8.710938 -15.019531 7.097656 -15.21875 4.921875 -15.21875 L 4.921875 -8.140625 C 6.359375 -8.140625 7.390625 -8.210938 8.015625 -8.359375 C 8.648438 -8.515625 9.054688 -8.742188 9.234375 -9.046875 C 9.421875 -9.359375 9.515625 -9.875 9.515625 -10.59375 L 9.765625 -10.640625 L 9.765625 -5.171875 L 9.515625 -5.21875 C 9.515625 -5.945312 9.421875 -6.460938 9.234375 -6.765625 C 9.054688 -7.066406 8.648438 -7.285156 8.015625 -7.421875 C 7.390625 -7.566406 6.359375 -7.640625 4.921875 -7.640625 L 4.921875 -4.75 C 4.921875 -3.15625 4.976562 -2.09375 5.09375 -1.5625 C 5.207031 -1.039062 5.457031 -0.691406 5.84375 -0.515625 C 10.070312 -0.515625 12.1875 -1.414062 12.1875 -3.21875 L 12.453125 -3.265625 Z M 12.453125 0 "/></g></g></g><g fill="#b3936f" fill-opacity="1"><g transform="translate(183.72423, 184.423281)"><g/></g></g><g fill="#b3936f" fill-opacity="1"><g transform="translate(192.581883, 184.423281)"><g><path d="M 5.671875 0.21875 C 4.078125 0.21875 2.84375 -0.1875 1.96875 -1 C 1.101562 -1.8125 0.671875 -2.929688 0.671875 -4.359375 C 0.671875 -5.484375 1.113281 -6.519531 2 -7.46875 C 2.894531 -8.425781 4 -9.160156 5.3125 -9.671875 C 5.207031 -10.265625 5.15625 -10.800781 5.15625 -11.28125 C 5.15625 -12.539062 5.515625 -13.59375 6.234375 -14.4375 C 6.960938 -15.289062 7.90625 -15.71875 9.0625 -15.71875 C 9.875 -15.71875 10.535156 -15.46875 11.046875 -14.96875 C 11.566406 -14.476562 11.828125 -13.84375 11.828125 -13.0625 C 11.828125 -12.28125 11.535156 -11.578125 10.953125 -10.953125 C 10.367188 -10.335938 9.414062 -10.003906 8.09375 -9.953125 C 9.226562 -9.359375 10.554688 -9.0625 12.078125 -9.0625 C 13.003906 -9.0625 13.945312 -9.40625 14.90625 -10.09375 C 15.34375 -10.40625 15.6875 -10.5625 15.9375 -10.5625 C 16.28125 -10.5625 16.453125 -10.375 16.453125 -10 C 16.453125 -9.757812 16.304688 -9.535156 16.015625 -9.328125 C 15.722656 -9.128906 15.351562 -8.972656 14.90625 -8.859375 C 14.039062 -8.648438 13.273438 -8.53125 12.609375 -8.5 C 12.566406 -6.351562 12.164062 -4.5625 11.40625 -3.125 C 12.257812 -2.414062 13.25 -1.765625 14.375 -1.171875 C 15.507812 -0.585938 16.519531 -0.285156 17.40625 -0.265625 L 17.453125 0 L 14.046875 0 C 13.085938 -0.207031 11.9375 -0.84375 10.59375 -1.90625 C 9.375 -0.488281 7.734375 0.21875 5.671875 0.21875 Z M 6 -0.453125 C 7.832031 -0.453125 9.175781 -1.085938 10.03125 -2.359375 C 8.914062 -3.285156 7.9375 -4.347656 7.09375 -5.546875 C 6.257812 -6.753906 5.6875 -8.015625 5.375 -9.328125 C 3.4375 -8.234375 2.46875 -6.570312 2.46875 -4.34375 C 2.46875 -3.113281 2.804688 -2.15625 3.484375 -1.46875 C 4.171875 -0.789062 5.007812 -0.453125 6 -0.453125 Z M 8.921875 -15.3125 C 8.304688 -15.3125 7.789062 -14.945312 7.375 -14.21875 C 6.96875 -13.488281 6.765625 -12.5625 6.765625 -11.4375 C 6.765625 -10.320312 7.085938 -9.066406 7.734375 -7.671875 C 8.378906 -6.273438 9.375 -4.953125 10.71875 -3.703125 C 11.289062 -5.085938 11.59375 -6.691406 11.625 -8.515625 C 10.144531 -8.648438 8.867188 -9.128906 7.796875 -9.953125 L 7.796875 -10.15625 C 8.535156 -10.15625 9.15625 -10.425781 9.65625 -10.96875 C 10.15625 -11.519531 10.40625 -12.15625 10.40625 -12.875 C 10.40625 -13.601562 10.273438 -14.191406 10.015625 -14.640625 C 9.753906 -15.085938 9.390625 -15.3125 8.921875 -15.3125 Z M 8.921875 -15.3125 "/></g></g></g><g fill="#b3936f" fill-opacity="1"><g transform="translate(213.488499, 184.423281)"><g/></g></g><g fill="#b3936f" fill-opacity="1"><g transform="translate(222.346151, 184.423281)"><g><path d="M 15.328125 -1.734375 C 13.609375 -0.429688 11.546875 0.21875 9.140625 0.21875 C 6.734375 0.21875 4.796875 -0.550781 3.328125 -2.09375 C 1.859375 -3.632812 1.125 -5.554688 1.125 -7.859375 C 1.125 -10.171875 1.832031 -12.09375 3.25 -13.625 C 4.664062 -15.164062 6.570312 -15.9375 8.96875 -15.9375 C 10.082031 -15.9375 11.191406 -15.785156 12.296875 -15.484375 C 13.410156 -15.191406 14.25 -14.882812 14.8125 -14.5625 L 14.8125 -11.6875 L 14.5625 -11.734375 C 14.1875 -13.085938 13.535156 -14.039062 12.609375 -14.59375 C 11.691406 -15.144531 10.476562 -15.421875 8.96875 -15.421875 C 7.050781 -15.421875 5.585938 -14.726562 4.578125 -13.34375 C 3.578125 -11.957031 3.078125 -10.144531 3.078125 -7.90625 C 3.078125 -5.675781 3.609375 -3.867188 4.671875 -2.484375 C 5.734375 -1.109375 7.226562 -0.421875 9.15625 -0.421875 C 10.53125 -0.421875 11.675781 -0.585938 12.59375 -0.921875 C 13.519531 -1.265625 14.429688 -1.757812 15.328125 -2.40625 Z M 15.328125 -1.734375 "/></g></g></g><g fill="#b3936f" fill-opacity="1"><g transform="translate(241.58929, 184.423281)"><g><path d="M 9.953125 -0.265625 C 10.523438 -0.265625 10.925781 -0.3125 11.15625 -0.40625 C 11.394531 -0.5 11.515625 -0.726562 11.515625 -1.09375 C 11.515625 -1.46875 11.113281 -2.742188 10.3125 -4.921875 L 3.46875 -4.921875 C 2.820312 -3.015625 2.5 -1.816406 2.5 -1.328125 C 2.5 -0.847656 2.617188 -0.550781 2.859375 -0.4375 C 3.109375 -0.320312 3.554688 -0.265625 4.203125 -0.265625 L 4.25 0 L -0.8125 0 L -0.765625 -0.265625 C -0.328125 -0.265625 0.0078125 -0.300781 0.25 -0.375 C 0.5 -0.457031 0.769531 -0.660156 1.0625 -0.984375 C 1.351562 -1.304688 1.632812 -1.773438 1.90625 -2.390625 C 2.175781 -3.003906 2.5 -3.863281 2.875 -4.96875 L 4.875 -10.75 C 5.582031 -12.789062 5.9375 -14.023438 5.9375 -14.453125 C 5.9375 -14.890625 5.832031 -15.171875 5.625 -15.296875 C 5.414062 -15.421875 5.007812 -15.484375 4.40625 -15.484375 L 4.359375 -15.734375 L 8.078125 -15.734375 L 12.046875 -4.96875 C 12.722656 -3.1875 13.175781 -2.054688 13.40625 -1.578125 C 13.644531 -1.097656 13.867188 -0.789062 14.078125 -0.65625 C 14.453125 -0.394531 14.921875 -0.265625 15.484375 -0.265625 L 15.53125 0 L 9.921875 0 Z M 6.8125 -14.53125 L 3.640625 -5.46875 L 10.140625 -5.46875 Z M 6.8125 -14.53125 "/></g></g></g><g fill="#b3936f" fill-opacity="1"><g transform="translate(259.551111, 184.423281)"><g><path d="M 1.84375 -4.765625 C 1.84375 -3.304688 2.195312 -2.195312 2.90625 -1.4375 C 3.625 -0.675781 4.5 -0.296875 5.53125 -0.296875 C 6.5625 -0.296875 7.40625 -0.546875 8.0625 -1.046875 C 8.726562 -1.546875 9.0625 -2.335938 9.0625 -3.421875 C 9.0625 -4.390625 8.546875 -5.257812 7.515625 -6.03125 C 7.054688 -6.351562 6.550781 -6.675781 6 -7 C 5.445312 -7.320312 4.890625 -7.65625 4.328125 -8 C 3.773438 -8.34375 3.273438 -8.703125 2.828125 -9.078125 C 1.796875 -9.953125 1.28125 -10.96875 1.28125 -12.125 C 1.28125 -13.289062 1.703125 -14.21875 2.546875 -14.90625 C 3.398438 -15.59375 4.523438 -15.9375 5.921875 -15.9375 C 7.328125 -15.9375 8.628906 -15.628906 9.828125 -15.015625 C 9.828125 -14.265625 9.710938 -12.976562 9.484375 -11.15625 L 9.15625 -11.234375 C 9.15625 -12.648438 8.804688 -13.707031 8.109375 -14.40625 C 7.421875 -15.101562 6.628906 -15.453125 5.734375 -15.453125 C 4.847656 -15.453125 4.132812 -15.191406 3.59375 -14.671875 C 3.050781 -14.148438 2.78125 -13.535156 2.78125 -12.828125 C 2.78125 -12.128906 2.972656 -11.53125 3.359375 -11.03125 C 3.742188 -10.53125 4.222656 -10.113281 4.796875 -9.78125 C 5.378906 -9.445312 6.003906 -9.082031 6.671875 -8.6875 C 7.347656 -8.289062 7.972656 -7.898438 8.546875 -7.515625 C 9.128906 -7.140625 9.609375 -6.644531 9.984375 -6.03125 C 10.367188 -5.414062 10.5625 -4.722656 10.5625 -3.953125 C 10.5625 -2.578125 10.070312 -1.535156 9.09375 -0.828125 C 8.113281 -0.128906 6.929688 0.21875 5.546875 0.21875 C 4.785156 0.21875 4.003906 0.0976562 3.203125 -0.140625 C 2.398438 -0.378906 1.742188 -0.726562 1.234375 -1.1875 C 1.234375 -2.144531 1.320312 -3.359375 1.5 -4.828125 Z M 1.84375 -4.765625 "/></g></g></g><g fill="#b3936f" fill-opacity="1"><g transform="translate(274.590603, 184.423281)"><g><path d="M 0.34375 -15.734375 L 13.28125 -15.734375 L 13.28125 -12.5 L 13.0625 -12.546875 C 13.0625 -14.378906 11.25 -15.296875 7.625 -15.296875 L 7.625 -5.078125 C 7.625 -2.859375 7.75 -1.507812 8 -1.03125 C 8.09375 -0.851562 8.25 -0.695312 8.46875 -0.5625 C 8.695312 -0.425781 8.9375 -0.34375 9.1875 -0.3125 C 9.445312 -0.28125 9.800781 -0.265625 10.25 -0.265625 L 10.296875 0 L 3.375 0 L 3.421875 -0.265625 C 3.867188 -0.265625 4.222656 -0.273438 4.484375 -0.296875 C 4.742188 -0.328125 4.984375 -0.414062 5.203125 -0.5625 C 5.421875 -0.707031 5.578125 -0.863281 5.671875 -1.03125 C 5.773438 -1.195312 5.863281 -1.488281 5.9375 -1.90625 C 6.007812 -2.414062 6.046875 -3.472656 6.046875 -5.078125 L 6.046875 -15.296875 C 2.421875 -15.296875 0.609375 -14.378906 0.609375 -12.546875 L 0.34375 -12.5 Z M 0.34375 -15.734375 "/></g></g></g><g fill="#b3936f" fill-opacity="1"><g transform="translate(291.450924, 184.423281)"><g><path d="M 11.890625 0 L 1.140625 0 L 1.1875 -0.265625 C 1.550781 -0.265625 1.84375 -0.28125 2.0625 -0.3125 C 2.28125 -0.34375 2.476562 -0.425781 2.65625 -0.5625 C 2.832031 -0.695312 2.960938 -0.847656 3.046875 -1.015625 C 3.128906 -1.191406 3.203125 -1.484375 3.265625 -1.890625 C 3.335938 -2.410156 3.375 -3.472656 3.375 -5.078125 L 3.375 -10.65625 C 3.375 -12.882812 3.269531 -14.242188 3.0625 -14.734375 C 2.863281 -15.148438 2.53125 -15.390625 2.0625 -15.453125 C 1.84375 -15.472656 1.550781 -15.484375 1.1875 -15.484375 L 1.140625 -15.734375 L 7.1875 -15.734375 L 7.15625 -15.484375 C 6.40625 -15.484375 5.859375 -15.34375 5.515625 -15.0625 C 5.140625 -14.75 4.953125 -13.28125 4.953125 -10.65625 L 4.953125 -4.75 C 4.953125 -3.125 5.003906 -2.046875 5.109375 -1.515625 C 5.210938 -0.984375 5.457031 -0.628906 5.84375 -0.453125 C 9.707031 -0.453125 11.640625 -1.375 11.640625 -3.21875 L 11.890625 -3.265625 Z M 11.890625 0 "/></g></g></g><g fill="#b3936f" fill-opacity="1"><g transform="translate(307.142316, 184.423281)"><g><path d="M 12.453125 0 L 1.125 0 L 1.171875 -0.265625 C 1.921875 -0.265625 2.46875 -0.410156 2.8125 -0.703125 C 3.1875 -1.015625 3.375 -2.472656 3.375 -5.078125 L 3.375 -10.65625 C 3.375 -12.257812 3.320312 -13.359375 3.21875 -13.953125 C 3.125 -14.546875 2.988281 -14.914062 2.8125 -15.0625 C 2.46875 -15.34375 1.921875 -15.484375 1.171875 -15.484375 L 1.125 -15.734375 L 11.625 -15.734375 L 11.625 -12.5 L 11.359375 -12.546875 C 11.359375 -13.546875 10.828125 -14.238281 9.765625 -14.625 C 8.710938 -15.019531 7.097656 -15.21875 4.921875 -15.21875 L 4.921875 -8.140625 C 6.359375 -8.140625 7.390625 -8.210938 8.015625 -8.359375 C 8.648438 -8.515625 9.054688 -8.742188 9.234375 -9.046875 C 9.421875 -9.359375 9.515625 -9.875 9.515625 -10.59375 L 9.765625 -10.640625 L 9.765625 -5.171875 L 9.515625 -5.21875 C 9.515625 -5.945312 9.421875 -6.460938 9.234375 -6.765625 C 9.054688 -7.066406 8.648438 -7.285156 8.015625 -7.421875 C 7.390625 -7.566406 6.359375 -7.640625 4.921875 -7.640625 L 4.921875 -4.75 C 4.921875 -3.15625 4.976562 -2.09375 5.09375 -1.5625 C 5.207031 -1.039062 5.457031 -0.691406 5.84375 -0.515625 C 10.070312 -0.515625 12.1875 -1.414062 12.1875 -3.21875 L 12.453125 -3.265625 Z M 12.453125 0 "/></g></g></g></svg>